<?xml version="1.0" standalone="no"?>
<svg width="64" height="64" viewBox="0 0 384 384" version="1.1" xmlns="http://www.w3.org/2000/svg">
  <path d="M334 301c32 -35 50 -80 50 -128c0 -104 -86 -189 -192 -189s-192 85 -192 189c0 48 18 94 51 129l1 1h-18l-8 -8l-23 23l41 40l23 -22l-9 -9v-18c31 30 72 50 116 53h2v38h32v-38c43 -4 82 -21 113 -49l5 -5v19l-9 9l23 22l41 -40l-22 -23l-9 8h-18zM200 130 c14 4 24 15 24 30c0 14 -10 27 -24 31v129h-16v-129c-12 -4 -24 -17 -24 -31c0 -15 10 -26 24 -30l8 -18z" transform="matrix(1,0,0,-1,0,384)"/>
</svg>